<?xml version="1.0" standalone="no"?><!DOCTYPE svg PUBLIC "-//W3C//DTD SVG 1.1//EN" "http://www.w3.org/Graphics/SVG/1.1/DTD/svg11.dtd"><svg t="1724600500984" class="icon" viewBox="0 0 1024 1024" version="1.1" xmlns="http://www.w3.org/2000/svg" p-id="10680" data-darkreader-inline-fill="" xmlns:xlink="http://www.w3.org/1999/xlink" width="200" height="200"><path d="M679.412382 62.428841H341.101213c-93.423763 0-169.155585 75.731822-169.155584 169.155585v507.4688c0 28.033473 22.721491 50.746778 50.746778 50.746778h67.658959l-84.410482 84.396155h101.258195l84.414575-84.396155h237.173724l84.413552 84.396155h101.258195l-84.409459-84.396155h67.77357c28.025287 0 50.745754-22.713304 50.745754-50.746778V231.584426c-0.001023-93.423763-75.731822-169.155585-169.156608-169.155585zM408.763243 130.091894c0-9.341762 7.573489-16.916275 16.915251-16.916275h186.071859c9.341762 0 16.915251 7.573489 16.915252 16.916275v16.915251c0 9.341762-7.573489 16.915251-16.915252 16.915252H425.678494c-9.341762 0-16.915251-7.573489-16.915251-16.915252v-16.915251z m-67.66203 541.299303c-37.366026 0-67.662029-30.296003-67.662029-67.663053 0-37.366026 30.296003-67.662029 67.662029-67.662029S408.763243 566.362118 408.763243 603.728144c0 37.366026-30.296003 67.663052-67.66203 67.663053z m135.315872-237.050928H239.764224V251.333212c0-20.219507 16.296151-36.605709 36.408211-36.605709h200.24465v219.612766z m202.995297 237.050928c-37.366026 0-67.662029-30.296003-67.662029-67.663053 0-37.366026 30.296003-67.662029 67.662029-67.662029 37.367049 0 67.663052 30.296003 67.663053 67.662029 0.001023 37.366026-30.296003 67.663052-67.663053 67.663053z m101.493556-236.818637H544.088324V214.670198h202.987111c18.682501 0 33.830503 15.148002 33.830503 33.831526v186.070836z" fill="#ffffff" p-id="10681" data-darkreader-inline-fill="" style="--darkreader-inline-fill: #35393b;"></path></svg>