<svg t="1724386851247" class="icon" viewBox="0 0 1024 1024" version="1.1" xmlns="http://www.w3.org/2000/svg" p-id="1085" width="200" height="200"><path d="M727.333877 204.281493c28.824891 0.085281 53.215184-9.892566 73.256159-29.933541 19.955694-20.126255 29.933541-44.601829 29.933541-73.341439 0-28.739611-9.977847-52.874061-29.933541-71.976948A101.484085 101.484085 0 0 0 727.248597 0.119393a102.763296 102.763296 0 0 0-73.170878 28.824891 95.855556 95.855556 0 0 0-30.018822 71.976948c0 28.824891 9.977847 53.300465 30.018822 73.341439 19.955694 20.040975 44.431267 30.018822 73.256158 30.018822z m-461.11298 0a98.925663 98.925663 0 0 0 73.256159-29.933541c19.955694-20.126255 29.933541-44.601829 29.933541-73.341439 0-28.739611-9.977847-52.874061-29.933541-71.976948A101.569366 101.569366 0 0 0 266.135616 0.119393c-28.739611 0-53.215184 9.636724-73.170878 28.824891a95.855556 95.855556 0 0 0-30.018821 71.976948c0 28.824891 9.977847 53.300465 30.018821 73.341439 19.955694 20.040975 44.345987 30.018822 73.256159 30.018822z m676.617419 466.485667L828.220997 326.829922c-17.567833-48.098339-50.4862-72.062228-98.499259-72.062229h-4.861002c-48.013059 0-80.846145 23.963889-98.499259 72.062229L511.744158 670.76716c-7.419425 22.172993 9.12504 45.198794 32.577244 45.198794h106.089245v271.448607c0 19.955694 16.203341 36.073755 36.073754 36.073755h81.613672c19.955694 0 36.073755-16.203341 36.073754-36.073755V715.965954h106.089245c23.537485 0 40.081949-23.025801 32.577244-45.198794zM343.144128 254.767693H189.212386c-27.204557 0-51.168446 10.404251-72.062229 31.298033a99.181505 99.181505 0 0 0-31.212752 72.062228v244.755734c0 19.955694 16.203341 36.244316 36.244316 36.244316h40.593634v348.457119c0 19.870413 16.03278 35.903193 35.817912 35.903193h134.743575a35.817912 35.817912 0 0 0 35.817913-35.817913V639.042724h40.678914c19.955694 0 36.244316-16.203341 36.244316-36.244316v-244.755734c0-27.289838-10.404251-51.339008-31.298033-72.062229a97.646451 97.646451 0 0 0-71.721105-31.298032z" fill="#ffffff" p-id="1086"></path></svg>