<svg id="图层_1" data-name="图层 1" xmlns="http://www.w3.org/2000/svg" xmlns:xlink="http://www.w3.org/1999/xlink" viewBox="0 0 100 100"><defs><style>.cls-1{fill:url(#未命名的渐变_35);}.cls-2{fill:url(#未命名的渐变_35-2);}</style><radialGradient id="未命名的渐变_35" cx="59.44" cy="31.92" r="55.3" gradientUnits="userSpaceOnUse"><stop offset="0" stop-color="#00ace7"/><stop offset="1" stop-color="#0063b6"/></radialGradient><radialGradient id="未命名的渐变_35-2" cx="59.44" cy="31.92" r="55.3" xlink:href="#未命名的渐变_35"/></defs><path class="cls-1" d="M84.07,85.91A49.48,49.48,0,0,1,2.22,62.85Z"/><path class="cls-2" d="M98.57,59.66.84,55.52c-.08-.67-.13-1.35-.18-2l98.82-1.75A50.26,50.26,0,0,1,98.57,59.66Z"/><path class="cls-1" d="M1,57,96.08,68.13a48.83,48.83,0,0,1-4.7,9.05l-90-17.89Q1.19,58.14,1,57Z"/><path class="cls-1" d="M42.46,48.57l-41.9,3c0-.51,0-1,0-1.53a50.18,50.18,0,0,1,.53-7.19c3.63-1.06,15.8-4.61,21.06-6.09C28.25,35,36.4,36.46,42.46,48.57Z"/><path class="cls-1" d="M85.64,45.52C72.47,22.49,47.3,26.25,47.3,26.25c18.36,4.21,25.23,16.39,26.93,20.07l-8.77.62c-1.22-3.11-5.61-12.57-15.26-16.82C38.58,25,29,28.18,25.3,29.29c-3.25,1-19.07,6.56-23.12,8a49.5,49.5,0,0,1,97,7.27Z"/></svg>