<svg id="图层_1" data-name="图层 1" xmlns="http://www.w3.org/2000/svg" viewBox="0 0 100 100"><defs><style>.cls-1{fill:#78c123;}</style></defs><path class="cls-1" d="M51.6,52l40.77.1c.39,0,.39-.1,0-.13L59.9,49.07l39.28,1c.42,0,.43-.09,0-.14L78,47.5a29.52,29.52,0,0,0,3.66-8.2c1.75-6.54-1.26-9.79-5-11-9.74-3.08-22.36-3-32.53-.27C32.7,31.18,24.71,36.38,18,43.66c-5.08,5.47-3.24,10.22,1.82,11,15.44,2.3,30.56.34,32.66.57-6,3-12.72,5.23-33,4.11-3.21-.17-10.65-.25-16.4,4A5.82,5.82,0,0,0,.66,69.46c1.06,4.6,16,4.77,21.88,4.43,11.34-.67,23.6-2.26,38-10.54a56.94,56.94,0,0,0,11.77-8.89l10.61-.36c.43,0,.46-.13,0-.15ZM44.31,36.84a30.41,30.41,0,0,1,21.82-6.19c6.28.65,6.09,6.19-1.5,15.38,0,0-16.21-1.72-19.77-2.41S40.05,40.15,44.31,36.84Z"/></svg>