<svg id="图层_1" data-name="图层 1" xmlns="http://www.w3.org/2000/svg" viewBox="0 0 100 100"><defs><style>.cls-1{fill:#953091;}.cls-2{fill:#254ea1;}</style></defs><g id="layer1"><g id="g3016"><path id="path9" class="cls-1" d="M99.5,46.88v1.85a21,21,0,0,1-4.63,10.41h0C88.17,67.46,75,73,60,73.25c16-2.78,27.52-12,27.52-23.13,0-13.19-16.65-24.06-37-24.06a52.51,52.51,0,0,0-6,.23l-1.16-3.7L39.82,11.72C65,14.49,85.62,23.05,94.64,34.16l.23.23A20.23,20.23,0,0,1,99.5,44.56V46"/><path id="path11" class="cls-2" d="M44.68,85.74a150,150,0,0,0,15.73,2.54L51.16,59.6l-6.48-2.08V73.71c-17.81-1.85-31.23-11.8-31.23-23.83,0-7.17,4.86-13.64,12.49-18a46.87,46.87,0,0,1,14.81-5.09h0c-15.27,0-28.45,5.55-35.39,13.88l-.23.23A21.75,21.75,0,0,0,.5,51.5v3.7A22.61,22.61,0,0,0,5.13,65.84l.23.24C12.3,74.63,26.64,81.8,44.68,85.74M84,46.88H77.29a48.89,48.89,0,0,1-19,11.1l7.17,2.31A47.2,47.2,0,0,0,84,46.88ZM78.68,40.4H69.89A49.49,49.49,0,0,1,42.14,52.89l9.71,3A48.25,48.25,0,0,0,78.68,40.4Zm-7.17-6.48H62.26a49.27,49.27,0,0,1-33.54,13c-2.54,0-4.86-.23-7.4-.47L37.51,51.5C51.39,50.12,63.65,43.64,71.51,33.92Z"/></g></g></svg>