<svg id="图层_1" data-name="图层 1" xmlns="http://www.w3.org/2000/svg" viewBox="0 0 100 100"><defs><style>.cls-1{fill:#c70826;}</style></defs><path class="cls-1" d="M39.83,43.79a.3.3,0,0,0,.37-.4,17.77,17.77,0,0,0-.83-2A24.24,24.24,0,0,0,26.54,29.9c-2-.8-2.07-1.11-1-3.06,1.63-3,4.3-4.26,7.44-4.54a28.64,28.64,0,0,1,4.43.17c.69.05,1.28,0,1.58-.76,1.62-4.25,5.05-6,9.08-6.55s7.86.28,10.89,3.39a10,10,0,0,1,1.8,2.75,1.64,1.64,0,0,0,2,1.12c3.28-.49,6.56-.39,9.32,1.8a11,11,0,0,1,2.53,3.22c.72,1.27.42,1.78-.93,2.32A24.53,24.53,0,0,0,61,40.48c-.57,1-1,2.09-1.45,3.14l.42.28a9,9,0,0,0,.9-.95,31.35,31.35,0,0,1,9.55-9.33c5.77-3.47,11.83-4.25,18.1-1.63,4.45,1.85,8.75,8,5.79,14.65-.84,1.89-.8,1.91,1.06,2.76,4.11,1.88,5.27,5.51,2.84,9.42a11.34,11.34,0,0,1-3.06,3.26,31.13,31.13,0,0,1-5,2.61c-1.32.6-1.44.79-.52,2,1.45,1.89,3,3.75,3.41,6.2a10.71,10.71,0,0,1,.08,3.57c-.49,2.84-2.3,4.08-5.11,3.38-3.42-.86-6.81-1.89-10.17-3C73,75.33,68.18,73.8,63.06,73.74a11.6,11.6,0,0,0-7.89,2.85c-1.36,1.16-2.66,2.39-4,3.61-1.11,1-1.27,1.07-2.38,0L45.5,77.19a13.12,13.12,0,0,0-10.7-3.37c-5.12.49-9.91,2.25-14.78,3.73-2.54.78-5.06,1.6-7.63,2.2-4.33,1-5.71-1.25-5.69-5.15,0-3.51,1.92-6.16,4.24-8.49a2.37,2.37,0,0,1,1.56-.43q16.08,0,32.16,0c10,0,26.05.08,35.4.12,3,0,3.17-.2,2.12-3.05-2.28-6.22-5.75-11.43-11.6-14.67-3.82-2.12-7.89-2.34-12.06-1.82-11.77,1.46-23,5.12-34.19,9-6.11,2.1-12.15,4.48-18.24,6.65a2.43,2.43,0,0,1-2-.3A8.56,8.56,0,0,1,.82,57a5.74,5.74,0,0,1,2.54-7A16.31,16.31,0,0,1,5,49.19c1.35-.62,1.4-.83.81-2.26a13,13,0,0,1-.91-2.68,11.27,11.27,0,0,1,7.67-12.72c6.25-2.1,12.12-1.06,17.61,2.5a31.91,31.91,0,0,1,8.28,8.07c.41.56.82,1.06,1.26,1.59A.34.34,0,0,0,39.83,43.79Z"/><path class="cls-1" d="M8.84,64.21A.3.3,0,0,1,9,63.87c1.51-.51,2.87-.88,4.34-1.23,10.19-2.46,20.12-4.73,30.22-6.89A48,48,0,0,1,54,54.62c4,0,7.43,1.42,9.73,5.05a4.72,4.72,0,0,1,.43,1.16,1,1,0,0,1-.63,1.28,3.37,3.37,0,0,1-.83.15c-7.05.34-14.1.64-21.15.94L26,63.83l-15.38.6c-.5,0-1.07,0-1.53,0a.29.29,0,0,1-.27-.23Z"/></svg>