<svg id="图层_1" data-name="图层 1" xmlns="http://www.w3.org/2000/svg" viewBox="0 0 100 100"><defs><style>.cls-1{fill:none;}.cls-2{fill:#00a3f1;}.cls-3{fill:#17c7de;}.cls-4{fill:#0079c8;}</style></defs><path class="cls-1" d="M23.71,60.79h0Z"/><path class="cls-2" d="M26.69,49.45a17.89,17.89,0,0,0-3.3,9.08c0,.19.22.24.27.06.73-2.83,3.47-8,13.7-10.94,11.23-3.21,25.13-.85,32.41.9-6.4-3.15-12.27-6.07-16.29-7.89A15.13,15.13,0,0,0,46,39.29C37.3,40,30.26,44.4,26.69,49.45Z"/><path class="cls-3" d="M75.84,51.43a28.94,28.94,0,0,0-8.12-2.82,83.44,83.44,0,0,0-16.41-1.45c-6.7.12-10.92,1.07-13.41,1.94-2.2.77.31.6,2.1.48,6.7-.43,16,2,32.89,7.52a157.35,157.35,0,0,0,26.28,6.09c.36.05.46-.58.12-.71C93.3,60.33,84.45,55.91,75.84,51.43Z"/><path class="cls-4" d="M22.37,55.08C27.49,41,41.37,38,49.29,38.69c-7.63-4-17.77-7.75-27.4-4.37C11.26,38.05,2,48.72.64,56.11c-.65,3.55.94,6,4.85,8.16,4.9,2.72,16,2.81,20.82,2.7,1.45,0,1.81-.42.13-.94C22.51,64.6,20.05,61.47,22.37,55.08Z"/></svg>