<svg id="图层_1" data-name="图层 1" xmlns="http://www.w3.org/2000/svg" viewBox="0 0 100 100"><defs><style>.cls-1{fill:#008cd3;}</style></defs><path class="cls-1" d="M99.52,49A49.46,49.46,0,0,0,77.28,7.68a17.72,17.72,0,0,1,1.84,6.57l.75,9.46a39.14,39.14,0,0,1-12.54,60.4V68.76a8,8,0,0,0-8-8H40.64a8,8,0,0,0-8,8V84.09a39.14,39.14,0,0,1-12.5-60.38l.75-9.46a17.72,17.72,0,0,1,1.84-6.57,49.53,49.53,0,0,0,9.91,87.71h0l.31.11.68.24.49.17.71.24.45.14,1.12.34.31.08.88.24.45.11.77.19.46.1.82.17.39.08.13,0h0c.81.15,1.63.29,2.45.41V74.5a3.33,3.33,0,0,1,3.33-3.33h7.2a3.33,3.33,0,0,1,3.33,3.33V98c.84-.12,1.67-.26,2.49-.41h0l.11,0,.37-.08c.28-.06.56-.11.84-.18l.46-.1.75-.18L62.4,97l.8-.21.39-.11,1.11-.33.47-.15.69-.23.52-.18.63-.22.32-.12h0A49.52,49.52,0,0,0,99.52,49Z"/><path class="cls-1" d="M29.31,78.47V66.53a8.42,8.42,0,0,1,8.43-8.43H62.11a8.42,8.42,0,0,1,8.42,8.43v12a35.93,35.93,0,0,0,10-10.75L76.52,17A16.46,16.46,0,0,0,60.19,2V12.37a6,6,0,0,1,6,5.5L68.5,47.48h-37l2.36-29.61a6,6,0,0,1,6-5.5V2A16.46,16.46,0,0,0,23.48,17L19.42,67.83A36,36,0,0,0,29.31,78.47Z"/></svg>