<svg id="图层_1" data-name="图层 1" xmlns="http://www.w3.org/2000/svg" viewBox="0 0 100 100"><defs><style>.cls-1{fill:red;}.cls-2{fill:#fff;}</style></defs><path class="cls-1" d="M99.5,43.63A22.12,22.12,0,0,0,72.1,22.07a22.19,22.19,0,0,0-44.2,0A22.19,22.19,0,0,0,14.17,64.12,22.19,22.19,0,0,0,50,90.14a22.18,22.18,0,0,0,35.83-26A22.2,22.2,0,0,0,99.5,43.63Z"/><rect class="cls-2" x="45.41" y="17.63" width="8.96" height="56.1" rx="0.99"/><path class="cls-2" d="M48.27,26.24A29.45,29.45,0,0,0,31.93,79a1.41,1.41,0,0,0,1.85-.13L38,74.78a1.41,1.41,0,0,0-.17-2.16A20.81,20.81,0,0,1,29,55.75a20.85,20.85,0,1,1,41.69-.08,20.76,20.76,0,0,1-8.76,17,1.42,1.42,0,0,0-.16,2.16L66,78.88a1.43,1.43,0,0,0,1.86.14A29.46,29.46,0,0,0,48.27,26.24Z"/></svg>