<svg id="图层_1" data-name="图层 1" xmlns="http://www.w3.org/2000/svg" viewBox="0 0 100 100"><defs><style>.cls-1{fill:#7dc500;}.cls-2{fill:#0093de;}</style></defs><path class="cls-1" d="M49.21,29l-5.9,9a9.36,9.36,0,0,1-7.83,4.23H29.93A5.93,5.93,0,0,0,25,45l-3.53,5.46a4.75,4.75,0,0,0,4,7.33h23.1a3.94,3.94,0,0,1,3.27,6.14L28.12,99a1.23,1.23,0,0,1-2.24-.69V83.47a10,10,0,0,1,1.9-5.87L32.56,71H23.12A17.27,17.27,0,0,1,8.9,44l5-7.24A17.81,17.81,0,0,1,28.55,29Z"/><path class="cls-2" d="M50.79,71l5.9-9a9.36,9.36,0,0,1,7.83-4.23h5.55a5.93,5.93,0,0,0,5-2.71l3.53-5.46a4.75,4.75,0,0,0-4-7.33H51.49a3.94,3.94,0,0,1-3.27-6.14L71.88,1a1.23,1.23,0,0,1,2.24.69v14.8a10,10,0,0,1-1.9,5.87L67.44,29h9.44A17.27,17.27,0,0,1,91.1,56l-5,7.24A17.81,17.81,0,0,1,71.45,71Z"/></svg>