<svg id="图层_1" data-name="图层 1" xmlns="http://www.w3.org/2000/svg" viewBox="0 0 100 100"><defs><style>.cls-1{fill:#004e8d;}</style></defs><path class="cls-1" d="M87.36,58.83C81.3,52.86,73,42.66,67.08,38.28c-4.18-3.11-10.08-5.41-17.5-.93a41.32,41.32,0,0,0-3.7,2.59,53.41,53.41,0,0,0-7.69-7.39C34,29.47,29.38,27.18,23.33,31,15.51,35.93,7.77,44.51,1.82,54.68-1,59.44-.77,65.3,3.9,67.43,7.49,69.08,17.23,69.1,21.54,69c.28,0,.3-.44,0-.5-9.16-2.17-10.27-4.82-9.4-9.43C13.1,54.15,21.57,44.35,25,41.75c4.74-3.55,8.33-2.33,11.66-.36a47.72,47.72,0,0,1,4.19,3A54.94,54.94,0,0,0,30.41,59c-1.61,3.4-2.48,6.94,3.1,9.68,5.23,2.57,14.46,2.47,19.65,2.17a.41.41,0,0,0,0-.8c-11.52-1.66-16.27-4.5-12-11.14a73.07,73.07,0,0,1,5.56-7.22,2.26,2.26,0,0,1,3-.79,14.06,14.06,0,0,0,10.13,1.55S59,52,56.82,51A10.58,10.58,0,0,1,54,48.94c-1.92-1.86-1.43-2.9,0-4,2.23-1.68,7-2.27,13,2.78S79.65,59.93,87.44,64.3a28.1,28.1,0,0,0,11,3.67c2.07.2,2.12-.34.28-1.2A41.29,41.29,0,0,1,87.36,58.83Z"/></svg>