<svg id="图层_1" data-name="图层 1" xmlns="http://www.w3.org/2000/svg" viewBox="0 0 100 100"><defs><style>.cls-1{fill:#00a1f0;}.cls-2{fill:#005ab2;}</style></defs><path class="cls-1" d="M.5,51.93S18.69,15,62.51,15c23.31,0,28.83,19.16,23.42,31.35,3-11.47-1.34-25.63-20.25-25.63A56.46,56.46,0,0,0,14.61,51.93Z"/><path class="cls-1" d="M99.5,48.07S81.31,85,37.49,85C14.18,85,8.66,65.84,14.07,53.65c-3,11.47,1.34,25.63,20.25,25.63A56.46,56.46,0,0,0,85.39,48.07Z"/><polygon class="cls-2" points="63.67 42.42 80.61 30.37 64.98 30.37 47.48 42.42 63.67 42.42"/><polygon class="cls-2" points="45.43 46.71 45.33 46.71 53.51 29.56 40.29 29.56 30.2 50.58 20.17 50.58 19.19 51.93 29.55 51.93 31.21 51.93 42.17 51.93 42.84 51.93 51.03 51.93 50.75 52.48 45.96 55.41 48.59 68.73 64.04 68.73 60.28 48.07 75.47 48.07 76.34 46.71 60.03 46.71 45.43 46.71"/><polygon class="cls-2" points="21.49 68.73 34.82 68.73 40.98 55.82 27.69 55.82 21.49 68.73"/></svg>