<svg id="图层_1" data-name="图层 1" xmlns="http://www.w3.org/2000/svg" viewBox="0 0 100 100"><defs><style>.cls-1{fill:#dc000e;}</style></defs><path class="cls-1" d="M82.68,4.17H17.32A13.14,13.14,0,0,0,4.17,17.32V61.5h6.21a2,2,0,0,0,2-2V47.27a2.49,2.49,0,0,1,2.49-2.5H42.13a2.5,2.5,0,0,1,2.5,2.5V59.5a2,2,0,0,0,2,2h6.76a2,2,0,0,0,2-2V47.27a2.5,2.5,0,0,1,2.5-2.5H85.13a2.49,2.49,0,0,1,2.49,2.5V59.5a2,2,0,0,0,2,2h6.21V17.32A13.14,13.14,0,0,0,82.68,4.17Z"/><path class="cls-1" d="M79.71,60.73a8.21,8.21,0,0,0-8.46-8.21,8.44,8.44,0,0,0-8,8.55v7.4a1.69,1.69,0,0,1-1.68,1.69H38.39a1.69,1.69,0,0,1-1.68-1.69v-7.4a8.44,8.44,0,0,0-8-8.55,8.21,8.21,0,0,0-8.46,8.21v7.74a1.69,1.69,0,0,1-1.68,1.69H4.17V82.68A13.14,13.14,0,0,0,17.32,95.83H82.68A13.14,13.14,0,0,0,95.83,82.68V70.16H81.39a1.69,1.69,0,0,1-1.68-1.69Z"/></svg>