<svg id="图层_1" data-name="图层 1" xmlns="http://www.w3.org/2000/svg" viewBox="0 0 100 100"><defs><style>.cls-1{fill:#00983a;}</style></defs><path class="cls-1" d="M75.36,33.09v0a25.36,25.36,0,0,0-50.72,0v0a25.35,25.35,0,1,0,7,50l.73-9.16a16.6,16.6,0,0,1-6.55,1.34,16.86,16.86,0,1,1,0-33.71,37.08,37.08,0,0,1,8.77,1.07c.5.12-.61-4.84-.9-8,0-.39-.08-1.12-.08-1.55,0-9.31,7-16.85,16.35-16.85s16.34,7.54,16.34,16.85c0,.42,0,1-.08,1.52a43.35,43.35,0,0,1-1.14,8,39.44,39.44,0,0,1,9-1,16.86,16.86,0,1,1,0,33.71,16.6,16.6,0,0,1-6.55-1.34l.73,9.16a25.35,25.35,0,1,0,7-50Z"/><path class="cls-1" d="M52.28,31.33c-1.58,1-2,1.81-2.28,1.81s-.7-.79-2.28-1.81c-1-.64-5.65,2-6,4.7C39.16,53.75,37.41,67,34.38,92.3l9.41-3.48a1.79,1.79,0,0,0,1.14-1.63c.08-5.58.64-29.44,2-52a.18.18,0,0,1,.3-.12L49,36.53a1.65,1.65,0,0,0,2.08,0l1.74-1.48a.18.18,0,0,1,.3.12c1.35,22.58,1.91,46.44,2,52a1.79,1.79,0,0,0,1.14,1.63l9.41,3.48C62.59,67,60.84,53.75,58.32,36,57.93,33.34,53.28,30.69,52.28,31.33Z"/></svg>