<svg id="图层_1" data-name="图层 1" xmlns="http://www.w3.org/2000/svg" viewBox="0 0 100 100"><defs><style>.cls-1{fill:red;}.cls-2{fill:#1b0082;}</style></defs><path class="cls-1" d="M71.49,4.87H95.27a.56.56,0,0,1,.56.57v65.3a.56.56,0,0,1-.57.57h-15a.56.56,0,0,1-.57-.57l-.1-40.22,0-.3L59.7,70.77a1,1,0,0,1-.87.54H41.27a1,1,0,0,1-.88-.54L20.53,30.24l-.08,0-.1,40.47a.56.56,0,0,1-.57.57h-15a.56.56,0,0,1-.57-.57V5.44a.56.56,0,0,1,.56-.57h24a1.11,1.11,0,0,1,1,.71L49.9,57l.15.32L50.2,57,70.44,5.58A1.13,1.13,0,0,1,71.49,4.87Z"/><path class="cls-2" d="M4.74,74h15a.58.58,0,0,1,.57.58v8l20-8.45A1.71,1.71,0,0,1,41,74h18.1a1.67,1.67,0,0,1,.62.12l20,7.86v-7.4A.58.58,0,0,1,80.3,74h15a.57.57,0,0,1,.57.58V85a.57.57,0,0,1-.57.57H70.38L50.23,75.31h-.4l-20,10.24H4.74A.57.57,0,0,1,4.17,85V74.55A.57.57,0,0,1,4.74,74Z"/><rect class="cls-2" x="4.17" y="87.52" width="24.16" height="7.62" rx="0.57"/><rect class="cls-2" x="38.05" y="87.52" width="24.14" height="7.62" rx="0.57"/><rect class="cls-2" x="72.17" y="87.52" width="23.66" height="7.62" rx="0.57"/></svg>