<svg id="图层_1" data-name="图层 1" xmlns="http://www.w3.org/2000/svg" viewBox="0 0 100 100"><defs><style>.cls-1{fill:#dc000e;}</style></defs><path class="cls-1" d="M82.4,43H19.34A1.37,1.37,0,0,1,18,41.26,33.16,33.16,0,0,1,41.26,18,1.37,1.37,0,0,1,43,19.34V36.83H57V19.34A1.37,1.37,0,0,1,58.74,18,33.19,33.19,0,0,1,80.4,36.83H94.91A46.84,46.84,0,0,0,57,3.69V.5H43V3.69A46.87,46.87,0,0,0,3.69,43H.5V57H80.66A1.37,1.37,0,0,1,82,58.74,33.16,33.16,0,0,1,58.74,82,1.37,1.37,0,0,1,57,80.66V63.17H43V80.66A1.37,1.37,0,0,1,41.26,82,33.21,33.21,0,0,1,19.6,63.17H5.09A46.84,46.84,0,0,0,43,96.31V99.5H57V96.31A46.87,46.87,0,0,0,96.31,57H99.5V43H82.4Z"/></svg>