<svg id="图层_1" data-name="图层 1" xmlns="http://www.w3.org/2000/svg" viewBox="0 0 100 100"><defs><style>.cls-1{fill:#ed0000;}.cls-2{fill:#fff;}</style></defs><path class="cls-1" d="M99,85.34H1V22.85a8.19,8.19,0,0,1,8.19-8.19H90.81A8.19,8.19,0,0,1,99,22.85Z"/><path class="cls-2" d="M77,55.61a27.21,27.21,0,0,0-4.38-3.53,21.43,21.43,0,0,0,8.28-16.93V14.66H72.06V35.15A12.67,12.67,0,0,1,59.41,47.81H40.59A12.67,12.67,0,0,1,27.94,35.15V14.66H19.12V35.15A21.43,21.43,0,0,0,27.4,52.08,27.21,27.21,0,0,0,23,55.61l-22,22v7.7H5.77L29.26,61.85a17.57,17.57,0,0,1,12.48-5.17H58.26a17.57,17.57,0,0,1,12.48,5.17L94.23,85.34H99v-7.7Z"/></svg>