<svg id="图层_1" data-name="图层 1" xmlns="http://www.w3.org/2000/svg" viewBox="0 0 100 100"><defs><style>.cls-1{fill:#c5820a;}</style></defs><path class="cls-1" d="M83.26,29.56H68.66a8,8,0,0,0-7.95,8V55.4c0,1.08,1.67,2.25,3,2.25h4.08s-1.72-.81-1.72-2.25V40a5,5,0,0,1,5-5h9.56a5,5,0,0,1,5,5V63.32a5,5,0,0,1-5,5H55.53v5.63H83.26A8,8,0,0,0,91.21,66V37.51A8,8,0,0,0,83.26,29.56Z"/><path class="cls-1" d="M83.6,63.32V40a3,3,0,0,0-3-3H71.06a3,3,0,0,0-3,3V55.4A2.62,2.62,0,0,0,71,57.65h3.67a2.83,2.83,0,0,1-1.25-2.25V43.26a1.07,1.07,0,0,1,1.06-1.07H76.9A1.07,1.07,0,0,1,78,43.26V59.6a1.07,1.07,0,0,1-1.07,1.07H55.53V66.3H80.62A3,3,0,0,0,83.6,63.32Z"/><path class="cls-1" d="M16.74,73.91h14.6a8,8,0,0,0,8-7.94V48.07c0-1.07-1.67-2.25-3-2.25H32.19s1.72.81,1.72,2.25V63.51a5,5,0,0,1-5,5H19.38a5,5,0,0,1-5-5V40.16a5,5,0,0,1,5-5H44.47V29.56H16.74a8,8,0,0,0-7.95,8V66A8,8,0,0,0,16.74,73.91Z"/><path class="cls-1" d="M16.4,40.16V63.51a3,3,0,0,0,3,3h9.56a3,3,0,0,0,3-3V48.07a2.62,2.62,0,0,0-2.87-2.25H25.38a2.83,2.83,0,0,1,1.25,2.25V60.21a1.07,1.07,0,0,1-1.06,1.07H23.1A1.07,1.07,0,0,1,22,60.21V43.87A1.07,1.07,0,0,1,23.1,42.8H44.47V37.18H19.38A3,3,0,0,0,16.4,40.16Z"/><path class="cls-1" d="M49.39,9.84c0-4.23,1.83-5.8,1.83-5.8s-8.85,2.9-8.85,8.69V35.19h7Z"/><path class="cls-1" d="M42.37,99.5l7-4V37.18h-7Z"/><path class="cls-1" d="M51.22,94.45l7-4V68.28h-7Z"/><path class="cls-1" d="M60.51.5S51.22,2.81,51.22,9V66.3h7V6.51C58.23,2.28,60.51.5,60.51.5Z"/></svg>