<svg id="图层_1" data-name="图层 1" xmlns="http://www.w3.org/2000/svg" viewBox="0 0 100 100"><defs><style>.cls-1{fill:#5aac2c;}.cls-2{fill:#0092da;}</style></defs><path class="cls-1" d="M50.28,39.36c.58.23-10.83-7.49-17.5-11.91-4.84-3.21-14.54-5.18-18.49,6.26S5.17,61.41,1.23,73.4c-3.53,10.73,8,14,13.09,6.67,5.25-7.59,18.94-27.45,24.57-35.62C42.31,39.49,50.28,39.36,50.28,39.36Z"/><path class="cls-2" d="M35.16,50.83S72.49,77.32,81.28,83.51s22-.65,17.11-15-11.93-35.65-15-45.41c-3.34-10.55-16.94-12.28-22.49-2-5.19,9.65-11.55,20.93-14,25.43S35.16,50.83,35.16,50.83Z"/></svg>