<svg id="图层_1" data-name="图层 1" xmlns="http://www.w3.org/2000/svg" viewBox="0 0 100 100"><defs><style>.cls-1{fill:#008d30;}</style></defs><path class="cls-1" d="M38.94,39.11l-2.26,3H28.13a1.47,1.47,0,0,0-1.15.56L19.4,52.39a.62.62,0,0,0,.49,1h7.24v7.5H6l17.2-21.78Zm8.86-4H22.33a2.09,2.09,0,0,0-1.65.8L1,60.8a2.5,2.5,0,0,0,2,4H31.1V49.42H26.74l2.62-3.36H38.7A1.68,1.68,0,0,0,40,45.39L47.8,35.15Z"/><path class="cls-1" d="M51.74,35.71,41.11,49.42H34.68V64.85H48.05V49.42H57.5a1.71,1.71,0,0,0,1.33-.64L69.54,35.15H52.89A1.43,1.43,0,0,0,51.74,35.71Z"/><path class="cls-1" d="M73.86,35.71,51.14,64.85H67.61a2.13,2.13,0,0,0,1.67-.8L81.1,49.42h6.37a1.7,1.7,0,0,0,1.32-.64L99.5,35.15H75A1.43,1.43,0,0,0,73.86,35.71Z"/></svg>