<svg id="图层_1" data-name="图层 1" xmlns="http://www.w3.org/2000/svg" viewBox="0 0 100 100"><defs><style>.cls-1{fill:#d10027;}</style></defs><path class="cls-1" d="M54.47,36.77A7.88,7.88,0,0,0,46.1,40.3l-3.27,5.24a8.18,8.18,0,0,1-6.94,3.84H13.78A2.62,2.62,0,0,1,11.88,45L27.76,28.32a18.71,18.71,0,0,1,19.89-4.68L98.33,41.91A49,49,0,0,0,1.61,57.73H72.28A29.93,29.93,0,0,0,85.1,55a3,3,0,0,1,2.51,0l1.12.5a1.29,1.29,0,0,1,.56,1.87c-2.08,3.33-8.83,12-22.82,12H5A49,49,0,0,0,99,50c0-1.2,0-2.39-.13-3.57Z"/></svg>