<svg id="图层_1" data-name="图层 1" xmlns="http://www.w3.org/2000/svg" viewBox="0 0 100 100"><defs><style>.cls-1{fill:#da0000;}</style></defs><path class="cls-1" d="M95.55,45.7V27.09A21.35,21.35,0,0,0,74.22,5.77H25.78A21.35,21.35,0,0,0,4.45,27.09V96.86h91.1V61.18H83.62V84.94H16.38V27.09a9.41,9.41,0,0,1,9.4-9.4H74.22a9.41,9.41,0,0,1,9.4,9.4V45.7Z"/><path class="cls-1" d="M75.52,76.72V36.26A10.47,10.47,0,0,0,65.06,25.8H34.94A10.47,10.47,0,0,0,24.48,36.26V76.72H36.4v-39H63.6v39Z"/><rect class="cls-1" x="44.04" y="45.7" width="11.92" height="31.01"/></svg>