<svg id="图层_1" data-name="图层 1" xmlns="http://www.w3.org/2000/svg" viewBox="0 0 100 100"><defs><style>.cls-1{fill:#f20000;}</style></defs><path class="cls-1" d="M99.06,47.26,97,46.78c-3-.69-6-1.3-9-1.83-10.88-1.89-38-6.59-44.61-7.64-8.33-1.32-16-.26-22.86,4.95A25.28,25.28,0,0,1,33,40.77c6.14,1,6.44,3.47,3.21,6.93C32.59,51.54,23.84,60,15.52,65.17c-4.87,3-8.16,3.46-10,3.12a2.73,2.73,0,0,1-2.23-2.55c-.12-2.61.77-8,7.73-15.46,0,0-12.19,10.93-10.31,19.3,1.48,6.59,12.7,2.88,20.94-2.89,4.52-3.16,14.46-11,20.45-15.81a17.11,17.11,0,0,1,11.14-3.73L99.5,48.38v-.57A.56.56,0,0,0,99.06,47.26Z"/><path class="cls-1" d="M59.93,50.92H53.09a17.36,17.36,0,0,0-10.64,3.64l-18.07,14L46.54,57.67l6.41.56L40.24,64.31l51.18-13.8-21.33.38A7.66,7.66,0,0,0,67,51.6l-7.2,3.34-6.18-.76Z"/><path class="cls-1" d="M81.6,41.19v.09l4.81.79A37.25,37.25,0,0,0,50,12.76C77.41,16.91,81.6,41.19,81.6,41.19Z"/><path class="cls-1" d="M15.12,42.45c2.45-12.4,12.1-23.88,26.75-23.88A26,26,0,0,1,67.46,38.93l9.16,1.52,0-.1C66.25,4.81,38,14.75,36.5,15.3A37.3,37.3,0,0,0,13.31,43.84Z"/><path class="cls-1" d="M85.44,56.89c-.73,3.91-4.32,17.8-19.15,23.35-14.43,5.42-27.73-6-30.19-11.62l-.08,0-8.33,1.89C39.34,89.78,56.93,86.6,59.48,86A37.28,37.28,0,0,0,86.69,56.6Z"/><path class="cls-1" d="M24.38,71.22h0l-4.25,1A37.15,37.15,0,0,0,50,87.24C30.42,84.49,24.38,71.22,24.38,71.22Z"/></svg>