<svg id="图层_1" data-name="图层 1" xmlns="http://www.w3.org/2000/svg" viewBox="0 0 100 100"><defs><style>.cls-1{fill:#0078b5;}</style></defs><path class="cls-1" d="M50,10.78A39.23,39.23,0,0,1,86.66,36.06l11,.67A49.5,49.5,0,0,0,1.33,59l9.49-10.37A39.22,39.22,0,0,1,50,10.78Z"/><path class="cls-1" d="M99,57c0-.12,0-.24.05-.36a50,50,0,0,0,.46-6.63l-28.94.73a10.13,10.13,0,0,0-7.48,3.59l-8.2,9.72,33.2-4.71a39.21,39.21,0,0,1-74,6.33,94.12,94.12,0,0,0,8.61-10L37.16,55,29.21,65.72H43a10.77,10.77,0,0,0,9-4.86l5.36-8.16a13.88,13.88,0,0,1,11.59-6.25H99.36c-.13-1.78-.35-3.52-.65-5.24l-37.91-5a15.21,15.21,0,0,0-14.22,6L40.07,51l-14.44.51c.14-.22.29-.42.43-.64C32,42,43.76,36.08,43.76,36.08c-10.68-.65-19.27,1.71-23.6,7.22S3.06,65.72,3.06,65.72l.14.4a49.48,49.48,0,0,0,95.65-8.26h0C98.92,57.58,99,57.31,99,57Z"/></svg>