<svg id="图层_1" data-name="图层 1" xmlns="http://www.w3.org/2000/svg" viewBox="0 0 100 100"><defs><style>.cls-1{fill:#ef0000;}</style></defs><path class="cls-1" d="M50,.5c-1.59,0-3.16.08-4.7.23V8.27A42.84,42.84,0,0,1,50,8,42,42,0,0,1,84.39,74.09V45.27a19.75,19.75,0,0,0-32-15.53,19.66,19.66,0,0,0-12.18-4.23,19.46,19.46,0,0,0-4.61.54V2.46a48.53,48.53,0,0,0-15.16,7.82h0a49.49,49.49,0,0,0,39,88.3V90.91a42,42,0,0,1-39-70.74V74.51H35.64V45.27a4.61,4.61,0,0,1,9.21,0V74.51H60V45.27a4.61,4.61,0,0,1,9.21,0V95.62l.25-.1A49.51,49.51,0,0,0,50,.5Z"/></svg>