<svg id="图层_1" data-name="图层 1" xmlns="http://www.w3.org/2000/svg" viewBox="0 0 100 100"><defs><style>.cls-1{fill:#3faf35;}.cls-2{fill:#007aaf;}</style></defs><g id="layer1"><g id="g921"><g id="g6382"><path id="path6384" class="cls-1" d="M0,54.92l5.12-6.11a10.49,10.49,0,0,1,8-3.73h3.34a10.49,10.49,0,0,0,8-3.74L34.74,29.13a10.49,10.49,0,0,1,8-3.74H77.2l-5.12,6.1a10.45,10.45,0,0,1-8,3.75H60.71a10.45,10.45,0,0,0-8,3.73L42.46,51.18a10.49,10.49,0,0,1-8,3.74Z"/></g><g id="g6386"><path id="path6388" class="cls-2" d="M22.8,74.61l5.12-6.11a10.49,10.49,0,0,1,8-3.73h3.34a10.48,10.48,0,0,0,8-3.74L57.54,48.81a10.49,10.49,0,0,1,8-3.73H100l-5.12,6.1a10.48,10.48,0,0,1-8,3.74H83.51a10.5,10.5,0,0,0-8,3.74L65.25,70.87a10.44,10.44,0,0,1-8,3.74Z"/></g></g></g></svg>