<svg id="图层_1" data-name="图层 1" xmlns="http://www.w3.org/2000/svg" viewBox="0 0 100 100"><defs><style>.cls-1{fill:red;}.cls-2{fill:#16025e;}</style></defs><path class="cls-1" d="M55.21,5.81c-19,0-35.06,12.75-40.65,30.4l19.9-4.91a34.9,34.9,0,0,1,62.75,12c.18.79.41.74.3-.06C94.4,22.07,76.65,5.81,55.21,5.81Z"/><path class="cls-2" d="M99.18,53.41c-13-4.69-43.7-15.77-48.47-17.15a35.07,35.07,0,0,0-20.15.31C19.94,40.08,12.74,44.23,5.65,51c-6.08,5.78-7.22,8.09-1,10.67,3,1.24,6.24,1.46,11.91,1.46H91.72S87.25,84.15,63.1,85C49.85,85.51,38.31,77.72,32.41,67h-17C21.89,83,37.2,94.19,55.05,94.19c20.39,0,37.45-14.65,41.85-34.3,0,0-52.82-3.07-59.59-3.6-5.28-.42-12-1.12-6.2-5.51a29.36,29.36,0,0,1,8.32-4.63c3.65-1.44,8.43-1.33,14.72-.3,4.85.79,32.39,6.09,44.77,8.48A.48.48,0,0,0,99.18,53.41Z"/></svg>