<svg id="图层_1" data-name="图层 1" xmlns="http://www.w3.org/2000/svg" viewBox="0 0 100 100"><defs><style>.cls-1{fill:red;}</style></defs><path class="cls-1" d="M44.88,13.75l.42,5.33c-15.95,1.2-22.82,12.79-22.82,12.79h7.93a24.91,24.91,0,0,1,35.49,0H73S66.53,20.24,50.57,19.08l.48-5.31A37.51,37.51,0,0,1,70.16,21l7.28-9.36A47.68,47.68,0,0,0,52,3.36l.16-1.77a1,1,0,0,0-1-1.09H44.91a1,1,0,0,0-1,1.08l.18,2.2A48,48,0,0,0,3,44.88l7.52,1.3A37.68,37.68,0,0,1,44.88,13.75Z"/><path class="cls-1" d="M63.78,85.42l-2.47-5H56.72l1.94,7a37.94,37.94,0,0,1-21.26.1l2-7.08H34.77l-2.53,5.17A37.69,37.69,0,0,1,10.57,56.5L3,57.63a47.94,47.94,0,0,0,74.7,33.16l-7.47-9.23A37.62,37.62,0,0,1,63.78,85.42Z"/><path class="cls-1" d="M85.92,67.06l1-2.2a1.24,1.24,0,0,1,1.51-.63L93.82,66a44.3,44.3,0,0,0,.12-29.55l-5.46,1.86A1.23,1.23,0,0,1,87,37.71l-1-2.2a1.22,1.22,0,0,1,.64-1.67l7.35-3A48.3,48.3,0,0,0,82.1,15.18l-8.51,8.63a37.64,37.64,0,0,1-.31,55.25L82,87.45A48.21,48.21,0,0,0,93.91,71.77l-7.35-3A1.23,1.23,0,0,1,85.92,67.06Z"/><path class="cls-1" d="M64.26,39.62a6.15,6.15,0,0,0-3.75-4.85,33.16,33.16,0,0,0-12.46-2.64A33.86,33.86,0,0,0,35.62,34.8a6.16,6.16,0,0,0-3.79,4.87l-1.4,10a35.13,35.13,0,0,0-.34,4.91V70.65a7.14,7.14,0,0,0,7.13,7.14H58.87A7.14,7.14,0,0,0,66,70.65V54.57a35.13,35.13,0,0,0-.34-4.91Zm-2.67,9.11-1,13.57a4.4,4.4,0,0,1-4.39,4.07H39.92a4.4,4.4,0,0,1-4.4-4.07l-1-13.57a20.76,20.76,0,0,1,.08-3.94l.5-4.34a3.63,3.63,0,0,1,2.3-3,31.89,31.89,0,0,1,10.66-2.24,29.37,29.37,0,0,1,10.69,2.19A3.59,3.59,0,0,1,61,40.37l.52,4.42A20.76,20.76,0,0,1,61.59,48.73Z"/></svg>