<svg id="图层_1" data-name="图层 1" xmlns="http://www.w3.org/2000/svg" viewBox="0 0 100 100"><defs><style>.cls-1{fill:#1b0082;}</style></defs><path class="cls-1" d="M83.62,61.87a35.65,35.65,0,1,1-.28-24.54,2,2,0,0,0,1.86,1.31H95.6a2,2,0,0,0,1.9-2.56A49.4,49.4,0,1,0,99.5,52a2,2,0,0,0-2-2H74.36c0-16.29-5.72-22.87-5.72-22.87H31.89a2,2,0,0,0-2,2V70.89a2,2,0,0,0,2,2H68.75s2.8-3.31,4.44-11H83.62M62.08,56.5a8.34,8.34,0,0,1-2.77,6H41.55V38.64H59.31a8.83,8.83,0,0,1,2.77,6c0,3.49-3,6-3,6S62.08,53.31,62.08,56.5Z"/></svg>