<svg id="图层_1" data-name="图层 1" xmlns="http://www.w3.org/2000/svg" viewBox="0 0 100 100"><defs><style>.cls-1{fill:#ec1b23;}</style></defs><path class="cls-1" d="M99.45,47.84a1.76,1.76,0,0,0-1.73-1.64H79.07a1.82,1.82,0,0,1-1.51-.79L63.65,29.27a1.75,1.75,0,0,0-2.71,0h0L51.47,40.5h0a1.78,1.78,0,0,1-1.41.69,1.82,1.82,0,0,1-1.41-.69h0L39.17,29.31h0a1.71,1.71,0,0,0-2.68,0L22.55,45.57a1.71,1.71,0,0,1-1,.63h-4a1.77,1.77,0,0,1-1.77-1.75c0-.05.05-.37.05-.37A34.67,34.67,0,0,1,83.15,40s0,0,0,0a1.76,1.76,0,0,0,1.65,1.11h0l11.68,0v0a1.77,1.77,0,0,0,1.76-1.76,3.16,3.16,0,0,0,0-.32A49.49,49.49,0,0,0,.5,50,47.74,47.74,0,0,0,1.73,61s.06.26.07.31,0,0,0,0a1.65,1.65,0,0,0,1.58,1.1h0l0,0H17.63s0-.05,0-.06l10,0h.09a1.8,1.8,0,0,0,1.3-.62l.11-.16,7.43-8.62h0a1.7,1.7,0,0,1,1.32-.6,1.74,1.74,0,0,1,1.29.56l9.53,11.42h0a1.7,1.7,0,0,0,1.31.59,1.68,1.68,0,0,0,1.32-.61h0L61,52.92a1.72,1.72,0,0,1,1.3-.6,1.77,1.77,0,0,1,1.31.63h0L71,61.56a1.2,1.2,0,0,0,.11.17,1.87,1.87,0,0,0,1.3.62h0a0,0,0,0,0,0,0l0,0,7.33,0h-.1a1.75,1.75,0,0,1,1.71,1.74,1.83,1.83,0,0,1-.14.68l.05-.1a34.64,34.64,0,0,1-60.66,3.79,1.62,1.62,0,0,0-1.4-.81H6a1.68,1.68,0,0,0-1.68,1.68,1.92,1.92,0,0,0,.13.64s0,0,0,0C12,87.65,29.53,99.5,50,99.49A49.5,49.5,0,0,0,99.5,50C99.5,49.41,99.45,47.86,99.45,47.84Zm-80.65,17h0S18.82,64.89,18.8,64.89Z"/></svg>