<svg id="图层_1" data-name="图层 1" xmlns="http://www.w3.org/2000/svg" xmlns:xlink="http://www.w3.org/1999/xlink" viewBox="0 0 100 100"><defs><style>.cls-1{fill:url(#未命名的渐变_17);}.cls-2{fill:url(#未命名的渐变_23);}</style><linearGradient id="未命名的渐变_17" x1="6.75" y1="29.72" x2="82.51" y2="51.45" gradientUnits="userSpaceOnUse"><stop offset="0" stop-color="#0044b1"/><stop offset="0.79" stop-color="#0044b1"/><stop offset="1" stop-color="#0044b1" stop-opacity="0"/></linearGradient><linearGradient id="未命名的渐变_23" x1="27.05" y1="47.17" x2="102.81" y2="68.9" gradientTransform="translate(120.3 117.45) rotate(180)" gradientUnits="userSpaceOnUse"><stop offset="0" stop-color="#be0000"/><stop offset="0.79" stop-color="#be0000"/><stop offset="1" stop-color="#be0000" stop-opacity="0"/></linearGradient></defs><path class="cls-1" d="M60.47,54.48l-1.4,1.58a19.19,19.19,0,0,1-14.36,6.58H5.82c-4.6,0-6.85-3.45-4.16-8.52,6.41-12.06,21.66-33.2,55.47-33.2H92.9L90,29.37H54.86c-7.51,0-21.19,2.62-31.37,17.21-2.09,3,0,7.29,3.48,7.3L60.28,54A.28.28,0,0,1,60.47,54.48Z"/><path class="cls-2" d="M39.53,45.52l1.4-1.58a19.19,19.19,0,0,1,14.36-6.58H94.18c4.6,0,6.85,3.45,4.16,8.52-6.41,12.06-21.66,33.2-55.47,33.2H7.1L10,70.63H45.14c7.51,0,21.19-2.62,31.37-17.21,2.09-3,0-7.29-3.48-7.3L39.72,46A.28.28,0,0,1,39.53,45.52Z"/></svg>