<svg id="图层_1" data-name="图层 1" xmlns="http://www.w3.org/2000/svg" viewBox="0 0 100 100"><defs><style>.cls-1{fill:#1d0085;}</style></defs><path class="cls-1" d="M31.47,33.47,35,19.92H62.44A15.18,15.18,0,0,1,74.8,26,31.76,31.76,0,0,1,80,52.3a1.46,1.46,0,0,1,0,.2H99.44c0-.83.06-1.66.06-2.5A49.5,49.5,0,0,0,3.34,33.47Z"/><path class="cls-1" d="M74.05,66.38a44.35,44.35,0,0,1-7.23,8.5,18.63,18.63,0,0,1-12.55,4.76H24.92a4.07,4.07,0,0,1-4.05-5l7-27.28H.57C.53,48.23.5,49.11.5,50A49.5,49.5,0,0,0,96.71,66.38Z"/><path class="cls-1" d="M42.12,62.56H97.89a49.46,49.46,0,0,0,1.19-6.24H57.82S61,51,62,46.76c1.11-5-1.71-9.28-6.83-9.28H2.1A49.61,49.61,0,0,0,1,43.38H46.79s-1.87,7.48-2.49,10C43.16,57.94,42.12,62.56,42.12,62.56Z"/></svg>