<svg id="图层_1" data-name="图层 1" xmlns="http://www.w3.org/2000/svg" viewBox="0 0 100 100"><defs><style>.cls-1{fill:#18bef2;}.cls-2{fill:#0056a4;}</style></defs><path class="cls-1" d="M73.19,11l.93-.75A40.37,40.37,0,0,1,78.18,23.5a100.44,100.44,0,0,0-10.71,9.2A27.54,27.54,0,0,0,66.19,25c-11.5,10.95-28.4,32.53-28.4,64.78H31.33C31.33,37.58,71.48,12.07,73.19,11Z"/><path class="cls-1" d="M84.58,22l1-.68a56.05,56.05,0,0,1,3.1,13.39A94,94,0,0,0,77.8,43.9a61.19,61.19,0,0,0-1.19-7.49c-10.09,9.66-23.36,27.3-23.36,53.33H46.79C46.79,44.27,83,22.85,84.58,22Z"/><path class="cls-1" d="M97.93,32.41l1.22-.5s.21,4.33.35,6.92c-5.7,3-30.83,17.92-30.83,50.91H62.21C62.21,49.07,97.57,32.57,97.93,32.41Z"/><path class="cls-2" d="M26.81,11l-.94-.75A40.65,40.65,0,0,0,21.81,23.5a100.44,100.44,0,0,1,10.71,9.2A27.82,27.82,0,0,1,33.81,25c11.49,10.95,28.4,32.53,28.4,64.78h6.45C68.66,37.58,28.52,12.07,26.81,11Z"/><path class="cls-2" d="M15.46,22l-1-.68a56.35,56.35,0,0,0-3.11,13.39A93.64,93.64,0,0,1,22.24,43.9a62.33,62.33,0,0,1,1.18-7.49c10.1,9.66,23.37,27.3,23.37,53.33h6.46C53.25,44.27,17,22.85,15.46,22Z"/><path class="cls-2" d="M2.07,32.41l-1.22-.5S.64,36.24.5,38.83c5.7,3,30.83,17.92,30.83,50.91h6.46C37.79,49.07,2.43,32.57,2.07,32.41Z"/></svg>