<svg id="图层_1" data-name="图层 1" xmlns="http://www.w3.org/2000/svg" viewBox="0 0 100 100"><defs><style>.cls-1{fill:#fc0000;}</style></defs><path class="cls-1" d="M48.27,30.63c-23.89,4.24-34,18.15-35.85,21.4s.59,3.13,3.17,1.28c3-2.11,5.7-2.12,8.65.64s4.81,1.69,7.21-1.28,11.45-10.88,17-14.83S60,32.39,68.33,35.58A335.87,335.87,0,0,1,99.49,49.21,49.49,49.49,0,0,0,.51,50a50.07,50.07,0,0,0,.7,8.27C12.64,28.77,48.27,30.63,48.27,30.63Z"/><path class="cls-1" d="M67.6,45.47c-7.93-2.33-10.12-2.54-15.38,2C48.81,50.38,41.06,59,35.55,65.11S25.66,68.64,21.7,65s-5.79-4.24-10.88-.85c-3,2-5.87,2.3-7.81,1.41a49.5,49.5,0,0,0,95.86-7.6C93.51,55.59,75.54,47.8,67.6,45.47Z"/></svg>