<svg id="图层_1" data-name="图层 1" xmlns="http://www.w3.org/2000/svg" xmlns:xlink="http://www.w3.org/1999/xlink" viewBox="0 0 100 100"><defs><style>.cls-1{fill:url(#未命名的渐变_14);}.cls-2{fill:#fff;}.cls-3{fill:#ff881e;}</style><linearGradient id="未命名的渐变_14" x1="1.03" y1="50" x2="98.97" y2="50" gradientUnits="userSpaceOnUse"><stop offset="0" stop-color="#0047a2"/><stop offset="1" stop-color="#00bde6"/></linearGradient></defs><circle class="cls-1" cx="50" cy="50" r="48.97"/><path class="cls-2" d="M44.37,47.29A132.2,132.2,0,0,0,4.77,68.78l.06.16c7.4-4.59,41.57-23.82,86-17.23,0,0,2.68-8-5-10.92A36.18,36.18,0,0,1,70.18,42,31.66,31.66,0,0,1,57.8,36.61a1.23,1.23,0,0,1,.31-2.18A36.09,36.09,0,0,1,79,33.56S64.28,24,38.46,31.65c-20.22,6-33.08,22.27-36.62,27.23.09.5.19,1,.3,1.49C7.29,55,27,35.66,45,36.78c9.48.59,11.44,4.17,9.26,6.73C52.7,45.3,48.63,45.92,44.37,47.29Z"/><path class="cls-3" d="M5.22,69.84c.27.6.54,1.19.83,1.77,4-2.56,42.79-25.73,85.62,4.12a48.64,48.64,0,0,0,6.72-18.19C96.87,57.05,52.59,43.23,5.22,69.84Z"/></svg>