<svg id="图层_1" data-name="图层 1" xmlns="http://www.w3.org/2000/svg" viewBox="0 0 100 100"><defs><style>.cls-1{fill:#009d35;}</style></defs><path class="cls-1" d="M67,57.76V42.24A41.55,41.55,0,0,0,91.54,5.43.42.42,0,0,0,91.13,5H79.26a.41.41,0,0,0-.4.39A28.83,28.83,0,0,1,67,27.66V5.41A.41.41,0,0,0,66.59,5H54.7a.41.41,0,0,0-.41.41V32.88a28.92,28.92,0,0,1-8.58,0V5.41A.41.41,0,0,0,45.3,5H33.41a.41.41,0,0,0-.41.41V27.66A28.83,28.83,0,0,1,21.14,5.39a.41.41,0,0,0-.4-.39H8.87a.42.42,0,0,0-.41.43A41.55,41.55,0,0,0,33,42.24V57.76A41.55,41.55,0,0,0,8.46,94.57a.42.42,0,0,0,.41.43H20.74a.41.41,0,0,0,.4-.39A28.83,28.83,0,0,1,33,72.34V94.59a.41.41,0,0,0,.41.41H45.3a.41.41,0,0,0,.41-.41V67.12a28.92,28.92,0,0,1,8.58,0V94.59a.41.41,0,0,0,.41.41H66.59a.41.41,0,0,0,.41-.41V72.34A28.83,28.83,0,0,1,78.86,94.61a.41.41,0,0,0,.4.39H91.13a.42.42,0,0,0,.41-.43A41.55,41.55,0,0,0,67,57.76ZM50,54.12c-1.45,0-2.88.08-4.29.22V45.66c1.41.14,2.84.22,4.29.22s2.88-.08,4.29-.22v8.68C52.88,54.2,51.45,54.12,50,54.12Z"/></svg>