<svg id="图层_1" data-name="图层 1" xmlns="http://www.w3.org/2000/svg" viewBox="0 0 100 100"><defs><style>.cls-1{fill:#b60036;}.cls-2{fill:#fff;}</style></defs><ellipse class="cls-1" cx="50" cy="50" rx="49.5" ry="41.75"/><path class="cls-2" d="M54.89,53.49V46.2c11.38-2.1,20-11.41,20-22.58H66.13c0,6.67-4.73,12.33-11.24,14.25V22H45.42V38c-6.68-1.83-11.55-7.55-11.55-14.33H25.16c0,11.27,8.73,20.64,20.26,22.63v7.19c-11.53,2-20.26,11.37-20.26,22.64h8.71c0-6.79,4.87-12.5,11.55-14.34V78h9.47V61.82c6.51,1.93,11.24,7.58,11.24,14.26h8.71C74.84,64.91,66.27,55.59,54.89,53.49Z"/></svg>