<svg id="图层_1" data-name="图层 1" xmlns="http://www.w3.org/2000/svg" viewBox="0 0 100 100"><defs><style>.cls-1{fill:#c80330;}</style></defs><path class="cls-1" d="M70.07,46.71a20.07,20.07,0,1,0-34.26,14.2l3.38,3.38L48,55.44l-3.38-3.38a7.56,7.56,0,1,1,10.7,0L28.5,78.92A33.56,33.56,0,0,1,41.22,20.74V4.44a49.47,49.47,0,0,0-19.3,89.44c2.26,1.47,6.4,2.94,9.47-.12l32.8-32.85A19.9,19.9,0,0,0,70.07,46.71Z"/><path class="cls-1" d="M58.78,4.44v16.3A33.55,33.55,0,0,1,71.5,78.91L60.86,68.27,52,77.12,68.76,93.79c2.69,2.66,6.22,1.84,8.56.6A49.47,49.47,0,0,0,58.78,4.44Z"/></svg>