<svg id="图层_1" data-name="图层 1" xmlns="http://www.w3.org/2000/svg" xmlns:xlink="http://www.w3.org/1999/xlink" viewBox="0 0 100 100"><defs><style>.cls-1{fill:url(#未命名的渐变_31);}.cls-2{fill:url(#未命名的渐变_31-2);}.cls-3{fill:url(#未命名的渐变_31-3);}.cls-4{fill:url(#未命名的渐变_31-4);}</style><linearGradient id="未命名的渐变_31" x1="1.42" y1="29.31" x2="90.69" y2="29.31" gradientUnits="userSpaceOnUse"><stop offset="0.06" stop-color="#3854b9"/><stop offset="0.49" stop-color="#00a2c8"/><stop offset="0.96" stop-color="#25d184"/></linearGradient><linearGradient id="未命名的渐变_31-2" x1="1.42" y1="69.68" x2="90.69" y2="69.68" xlink:href="#未命名的渐变_31"/><linearGradient id="未命名的渐变_31-3" x1="1.42" y1="49.52" x2="90.69" y2="49.52" xlink:href="#未命名的渐变_31"/><linearGradient id="未命名的渐变_31-4" x1="1.42" y1="48.41" x2="90.69" y2="48.41" xlink:href="#未命名的渐变_31"/></defs><path class="cls-1" d="M24,32.87c2,0,1.73,0,2.92-1a33,33,0,0,1,21-7.25,32.79,32.79,0,0,1,21.87,8l14.39-.09C76.75,23.77,63.84,18,49.16,18,30.29,18,14.35,27.53,9.1,40.63,13,35.71,16.52,32.76,24,32.87Z"/><path class="cls-2" d="M32.39,63.15H73.16C67.84,70.08,58.57,74.69,48,74.69c-9.66,0-18.23-3.84-23.71-9.78H12.09c7,10.16,21,17.09,37.07,17.09C68.7,82,85.45,71.24,90.1,57.43l-54.71-.07Z"/><polygon class="cls-3" points="50.78 52.73 92.08 52.73 94.74 46.32 54.06 46.51 50.78 52.73"/><path class="cls-4" d="M26.69,34.68c-5.51,0-10,.27-14.32,5.67S5.56,48.86,2.7,52.88c-4.23,5.93-1.9,9.77,3.12,9.77H24.89l3-5.3-14.11,0c-5.73,0-3.24-4.6,1.09-4.6H43.11l3.41-6.19-31,.14a21.07,21.07,0,0,1,1.68-2.54C19.87,40.63,21.85,40,26.69,40c7.25,0,57.62,0,70.54,0l2.27-5.79C92,34.22,31.86,34.68,26.69,34.68Z"/></svg>