<svg id="图层_1" data-name="图层 1" xmlns="http://www.w3.org/2000/svg" viewBox="0 0 100 100"><defs><style>.cls-1{fill:#f90012;}</style></defs><path class="cls-1" d="M94,25.33H6a6,6,0,0,0-6,6V65s24.31-15.7,38.54-19.88C46.78,42.64,48,49,48,49s11.85-7.52,17.77-10.81S76.88,35,81.62,39.74s8.84,10.89,10.36,15c1.27,3.47,1.33,7.37-6.66,7.37a77.06,77.06,0,0,1-23.39-3.29s10.89-.14,10.36-5-9.18-2-12.58-.78c-8.21,2.93-24,11.44-24,11.44s.59-4.59-.53-7.11C33.72,54.1,32,54,26.4,55.57S0,65,0,65v4.39a6,6,0,0,0,6,6H94a6,6,0,0,0,6-6v-38A6,6,0,0,0,94,25.33Z"/><path class="cls-1" d="M94,25.33H6a6,6,0,0,0-6,6V65s24.31-15.7,38.54-19.88C46.78,42.64,48,49,48,49s11.85-7.52,17.77-10.81S76.88,35,81.62,39.74s8.84,10.89,10.36,15c1.27,3.47,1.33,7.37-6.66,7.37a77.06,77.06,0,0,1-23.39-3.29s10.89-.14,10.36-5-9.18-2-12.58-.78c-8.21,2.93-24,11.44-24,11.44s.59-4.59-.53-7.11C33.72,54.1,32,54,26.4,55.57S0,65,0,65v4.39a6,6,0,0,0,6,6H94a6,6,0,0,0,6-6v-38A6,6,0,0,0,94,25.33Z"/></svg>