<svg id="图层_1" data-name="图层 1" xmlns="http://www.w3.org/2000/svg" viewBox="0 0 100 100"><defs><style>.cls-1{fill:#0077c9;}</style></defs><path class="cls-1" d="M84.69,4.17H15.31A11.14,11.14,0,0,0,4.17,15.31V84.69A11.14,11.14,0,0,0,15.31,95.83h4c1.95-1.28,17.73-12.61,4.4-33.74A31.21,31.21,0,0,1,28,23.65a30.81,30.81,0,0,1,17.54-8.73V11.66a1.57,1.57,0,0,1,1.57-1.57h5.7a1.57,1.57,0,0,1,1.57,1.57v3.26A30.87,30.87,0,0,1,72,23.65a31.21,31.21,0,0,1,4.37,38.44c-13.71,21.74,3.61,33.24,4.39,33.74h4A11.14,11.14,0,0,0,95.83,84.69V15.31A11.14,11.14,0,0,0,84.69,4.17Z"/><path class="cls-1" d="M45.58,95.83V50.58H41.21a4.42,4.42,0,0,1,0-8.84H58.79a4.42,4.42,0,1,1,0,8.84H54.42V95.83H67.85c-5.68-7.69-10.57-20.89.65-38.68a21.8,21.8,0,1,0-37,0c11.22,17.79,6.33,31,.65,38.68Z"/></svg>