<svg id="图层_1" data-name="图层 1" xmlns="http://www.w3.org/2000/svg" viewBox="0 0 100 100"><defs><style>.cls-1{fill:#fa0000;}</style></defs><path class="cls-1" d="M41.85,57c0,10.44,36.32,11.86,48.87,12a.3.3,0,0,1,0,.6c-13.46,1.23-49.59,1.52-61.33.33C16,68.57,14.13,62.6,23.37,51.1s28.11-21.89,38.71-25c8.1-2.36,20.11-3.28,29.06-3.64A49.51,49.51,0,0,0,2,62.16C2.36,59,5.19,54.37,12.45,47.41,28.2,32.34,51.27,26.47,58.25,25c.18,0,.24.23.06.29-31,11.08-41.57,22.79-48.23,30.79C3,64.64,11.51,69,11.51,69c-2.92-.4-6.58-1.08-8.4-3.11A49.5,49.5,0,1,0,91.82,23.53C65,28.15,41.85,43.67,41.85,57Z"/></svg>