<svg id="图层_1" data-name="图层 1" xmlns="http://www.w3.org/2000/svg" xmlns:xlink="http://www.w3.org/1999/xlink" viewBox="0 0 100 100"><defs><style>.cls-1{fill:#138eeb;}</style></defs><path class="cls-1" d="M62.6,30.37c2.48,2.12,5.1,4.48,7.75,7.06,3.13-2.2,6-4,8.37-5.35-1.06-1-3.54-3.22-7-6Q67.14,28,62.6,30.37Z"/><path class="cls-1" d="M57.57,33.18a144.72,144.72,0,0,0-13.28,8.87c3.11,3.1,6.24,6.45,9,9.8A130.73,130.73,0,0,1,65.43,41.08C64.35,39.88,61.58,36.88,57.57,33.18Z"/><path class="cls-1" d="M50.49,27.1c-2.44-2-5.11-3.92-8-5.81-5.1,2.06-9.78,4.26-14,6.47C30,29,33.05,31.54,36.78,34.92A103.83,103.83,0,0,1,50.49,27.1Z"/><path class="cls-1" d="M65.11,21c-2.32-1.66-4.84-3.36-7.48-5q-5,1.46-9.56,3.13c1.47,1,4.19,2.91,7.63,5.57C59,23.34,62.12,22.13,65.11,21Z"/><path class="cls-1" d="M68,13.35c-2,.43-3.86.91-5.74,1.4,1.31.76,4,2.38,7.32,4.65,1.36-.48,2.68-.95,3.93-1.41,6.93-2.52,4-6.78,1.67-8.9-6.07-5.65-16.63-7.8-18-8.06A50.81,50.81,0,0,0,50,.5,49.52,49.52,0,0,0,4.71,30C33,12.5,60.7,9.09,60.7,9.09Z"/><path class="cls-1" d="M36.91,47.86l-1.25,1c-7.7,6.47-25.88,8.65-7.21-7.58.5-.44,1-.85,1.53-1.28-2.63-2.86-5.42-5.77-8.28-8.53A134.82,134.82,0,0,0,.64,46.41C.56,47.6.5,48.79.5,50A49.47,49.47,0,0,0,24.58,92.47,156.59,156.59,0,0,1,46.3,59.38C44.87,57.54,41.45,53.18,36.91,47.86Z"/><path class="cls-1" d="M89.77,20.52a101.08,101.08,0,0,0-13.46,3.79c2.17,1.7,4.37,3.57,6.49,5.57,2.78-1.4,4.42-2,4.42-2L92.91,33C54.59,60.1,41.13,91.41,38.57,98.16a49.5,49.5,0,0,0,51.2-77.64Z"/></svg>
