<svg xmlns="http://www.w3.org/2000/svg" viewBox="0 0 755.43 754.99"><path fill="#e60012" d="M249.66,90.66A314.36,314.36,0,0,0,64.72,377.49c0,172.17,137.9,312,308.86,314.23V546.17l55.59-55.59H537.88V264.41H464L344.45,384H257.89L438.5,203.37h101a59.19,59.19,0,0,1,59.19,59.19V492.43a59.19,59.19,0,0,1-59.19,59.19H454.06L434.7,571V685.15L364.65,755C162.09,748.1,0,581.73,0,377.49,0,182.12,148.34,21.39,338.53,1.79Z"/><path fill="#e60012" d="M390.78,0l-70,69.84V184l-19.36,19.36H215.9a59.19,59.19,0,0,0-59.18,59.19V492.43a59.19,59.19,0,0,0,59.18,59.19h101L497.54,371H411L291.41,490.58H217.55V264.41H326.26l55.6-55.59V63.27C552.81,65.5,690.72,205.33,690.72,377.49a314.36,314.36,0,0,1-185,286.83L416.9,753.2c190.19-19.6,338.53-180.33,338.53-375.71C755.43,173.26,593.34,6.89,390.78,0Z"/></svg>
