<svg id="图层_1" data-name="图层 1" xmlns="http://www.w3.org/2000/svg" viewBox="0 0 100 100"><defs><style>.cls-1{fill:#ec1b23;}</style></defs><path class="cls-1" d="M7.13,1H23.22a2.93,2.93,0,0,1,2.12.9c3.88,4,18.83,21,18.83,47V97.35A1.65,1.65,0,0,1,42.52,99H28.64A1.65,1.65,0,0,1,27,97.35V48.94C27,26.3,12.09,9.12,6.22,3.22A1.3,1.3,0,0,1,7.13,1Z"/><path class="cls-1" d="M92.87,1H76.78a2.93,2.93,0,0,0-2.12.9c-3.88,4-18.83,21-18.83,47V97.35A1.65,1.65,0,0,0,57.48,99H71.36A1.65,1.65,0,0,0,73,97.35V48.94C73,26.3,87.91,9.12,93.78,3.22A1.3,1.3,0,0,0,92.87,1Z"/></svg>