<svg id="图层_1" data-name="图层 1" xmlns="http://www.w3.org/2000/svg" viewBox="0 0 100 100"><defs><style>.cls-1{fill:#fc0000;}</style></defs><path class="cls-1" d="M99.5,50.07A49.49,49.49,0,0,0,56.45,1V13a37.58,37.58,0,0,1,10.88,70.4V71.54A4.58,4.58,0,0,0,62.75,67H50A16.92,16.92,0,0,1,34,55.49H73.5a4.21,4.21,0,0,0,4.21-4.22v-1.2A27.71,27.71,0,0,0,50,22.36H46.89a2.19,2.19,0,0,1-2.19-2.19V.86c-.39,0-.77.11-1.15.16h0L43,1.09l-1.56.24-1,.2c-.65.13-1.3.27-1.94.42s-1.17.28-1.75.44l-.91.28c-.52.15-1,.31-1.55.48-.13.05-.26.08-.39.12v0a49.48,49.48,0,0,0,9.68,95.85v-12a37.61,37.61,0,0,1-9.68-71V28.6a4.58,4.58,0,0,0,4.58,4.58H50A16.92,16.92,0,0,1,66,44.66H26.5a4.21,4.21,0,0,0-4.21,4.22v1.19A27.71,27.71,0,0,0,50,77.79h4.32A2.19,2.19,0,0,1,56.51,80V99.13c1.31-.17,2.6-.41,3.87-.68h0l.4-.1a47.89,47.89,0,0,0,6.55-1.91v0A49.49,49.49,0,0,0,99.5,50.07Z"/></svg>