<svg id="图层_1" data-name="图层 1" xmlns="http://www.w3.org/2000/svg" viewBox="0 0 100 100"><defs><style>.cls-1{fill:#00553e;}</style></defs><path class="cls-1" d="M94.62,73.76C91.38,79.5,83.56,86.51,69.81,86.51c-16.67,0-17.28-5.78-34.35-5.78-.69,0-1.36,0-2,.06-1.14.07-1.22-.62-.08-1a27.76,27.76,0,0,1,8-1.61V48.86a9,9,0,1,1,17.89,0V81.12a37.37,37.37,0,0,0,12,1.73c8.11,0,13.28-2.93,16.78-6.35A20.63,20.63,0,0,0,91.43,72,47.75,47.75,0,1,0,19.31,84.77,40.25,40.25,0,0,0,6.58,95.6a.76.76,0,0,0,.93,1.15,48.69,48.69,0,0,1,20-4.62c13.94,0,19.3,7.37,36.67,7.37,23.82,0,30-17,31.58-25.36A.58.58,0,0,0,94.62,73.76ZM15.23,48.24a34.77,34.77,0,1,1,56.54,27.1V48.86a21.5,21.5,0,1,0-43,0v26.9A34.71,34.71,0,0,1,15.23,48.24Z"/></svg>