<svg id="图层_1" data-name="图层 1" xmlns="http://www.w3.org/2000/svg" viewBox="0 0 100 100"><defs><style>.cls-1{fill:#cf0000;}</style></defs><path class="cls-1" d="M49.77,10.13C22.28,10.13,0,28,0,50S22.28,89.87,49.77,89.87,99.54,72,99.54,50,77.26,10.13,49.77,10.13ZM42.33,81.47a.74.74,0,0,1-.74.74H31.9a.74.74,0,0,1-.73-.74V55.39l11.16,1.45Zm47.94-23L70.36,56.64V81.47a.74.74,0,0,1-.73.74H59.82a.74.74,0,0,1-.74-.74V55.62L9.53,51.16a2.58,2.58,0,0,1-2-3.85C13,37.81,18.06,37.16,26,39.12l5.14,1.28V17.16l11.16,3.52v22.5l16.75,4.19V20.31l11.28,3.28V50.2L90.6,55.26a1,1,0,0,1,.74,1v1.25A1,1,0,0,1,90.27,58.43Z"/></svg>