<svg id="图层_1" data-name="图层 1" xmlns="http://www.w3.org/2000/svg" viewBox="0 0 100 100"><defs><style>.cls-1{fill:#00277e;}.cls-2{fill:#e80026;}</style></defs><path class="cls-1" d="M90.55,10.72h-8.7A5.25,5.25,0,0,0,78.37,12L50,37.37,21.63,12a5.25,5.25,0,0,0-3.48-1.32H9.45A9,9,0,0,0,.5,19.66V80.34a9,9,0,0,0,9,8.94h8.69a5.18,5.18,0,0,0,3.49-1.34L50,62.63,78.37,87.94a5.18,5.18,0,0,0,3.49,1.34h8.69a9,9,0,0,0,9-8.94V19.66A9,9,0,0,0,90.55,10.72Zm-70,53.51V36.17L35.77,50Zm58.92,0L64.23,50,79.46,36.17Z"/><path class="cls-2" d="M20.54,88.67a5,5,0,0,0,1.09-.73L50,62.63,78.37,87.94a5,5,0,0,0,1.09.73V64.23L50,37.37,20.54,64.23Z"/></svg>