<svg id="图层_1" data-name="图层 1" xmlns="http://www.w3.org/2000/svg" viewBox="0 0 100 100"><defs><style>.cls-1{fill:#57b52f;}.cls-2{fill:#f8ca03;}.cls-3{fill:#0094d7;}</style></defs><path class="cls-1" d="M17.12,63h77c4.3,0,6-2.71,5.13-5.52l-.82-2.82a.81.81,0,0,0-.85-.6l-78.33,8.5Z"/><path class="cls-2" d="M95.17,50.39,16.5,61.56l73.59-19a1.65,1.65,0,0,1,1.8.71L95.75,49A.89.89,0,0,1,95.17,50.39Z"/><path class="cls-3" d="M15.78,60.34,86.43,39.52A.86.86,0,0,0,86.67,38l-2-1.46a10.51,10.51,0,0,0-10.28-1.17Z"/><path class="cls-3" d="M39.2,85.8A35.8,35.8,0,1,1,70.46,32.7l2.62-1.24a38.61,38.61,0,1,0,1,35.41l-3.21-.09A35.84,35.84,0,0,1,39.2,85.8Z"/><path class="cls-2" d="M39.2,15.87A34.13,34.13,0,1,0,68.94,66.73l-3.33-.09a31.27,31.27,0,1,1,.7-32l2.63-1.23A34.07,34.07,0,0,0,39.2,15.87Z"/><path class="cls-1" d="M39.2,20.3A29.7,29.7,0,1,0,63.82,66.6l-3.52-.1a26.83,26.83,0,1,1,2-30l2.63-1.24A29.66,29.66,0,0,0,39.2,20.3Z"/></svg>