<svg class="icon" viewBox="0 0 1024 1024" version="1.1" xmlns="http://www.w3.org/2000/svg" width="200" height="200"><path d="M5.13018 452.608c-34.4 242.848 107.424 470.208 328.64 551.872l34.4-242.432C227.11418 732.864 128.39418 601.6 141.29018 456.704c-29.664-17.792-50.08-48.352-53.664-83.872l-0.032-0.48c-0.352-3.264-0.544-7.072-0.544-10.912 0-28.16 10.368-53.888 27.52-73.6l-0.128 0.128 41.984 36.288c-8.608 9.856-13.856 22.816-13.856 37.024 0 31.104 25.216 56.32 56.32 56.32 1.952 0 3.872-0.096 5.792-0.288l-0.224 0.032c15.36-1.472 28.704-9.088 37.728-20.32l0.096-0.096c7.936-9.632 12.736-22.08 12.736-35.68 0-1.952-0.096-3.872-0.288-5.792l0.032 0.224 55.296-5.696c0.384 3.456 0.608 7.456 0.608 11.52 0 57.696-43.808 105.184-99.968 111.008l-0.48 0.032c-3.776 0.384-7.584 0.768-11.36 0.768-7.168 112.384 70.72 212.224 180.736 235.264 24.256-41.984 108.96-48.768 180.032-44.608l5.632-40.864c-93.44-20.064-207.616-63.168-198.912-133.184l26.496-185.728c12.48-83.968 184.896-80.96 280.576-67.328 95.328 13.632 262.08 59.392 250.752 142.976l-26.112 184.576c-11.008 70.4-132 80.224-227.328 73.792l-5.632 41.216c75.264 17.408 161.856 51.84 161.856 105.536 0 2.624 0 4.928-0.352 6.816-0.384 3.008-1.152 5.696-1.536 8.704l-20.8 145.664c114.208-80.032 193.536-203.136 214.432-345.28l0.352-2.784c39.008-281.376-155.392-540.512-435.264-580.288C303.88218-21.888 44.90618 172.576 5.13018 452.48z m736.16 41.92l-51.584-7.488L704.81018 382.208l51.2 7.072zM520.29818 463.36l-51.584-7.168 15.008-104.832 51.584 7.168z" fill="#1e88e5"></path></svg>