<svg xmlns="http://www.w3.org/2000/svg" viewBox="0 0 132 132"><path d="M65.9,14.7c14.39999,0,26,11.6,26,26v6.6c-8.6-1-17.4-1.4-26-1.4s-17.4.4-26,1.4v-6.6c0-14.2,11.6-26,26-26ZM113.1,90.7l2.6-22.8c5.8,1,10.2,5.8,10.2,11.2,0,6.4-5.8,11.60001-12.8,11.60001ZM18.5,90.7c-7,0-12.8-5.2-12.8-11.59999,0-5.6,4.4-10.2,10.2-11.2l2.6,22.8h0ZM104.1,52.9c-13.2-1.4-25.8-2-38-2s-25,.6-38,2c-4.4.4-7.6,4.4-7,8.6l4,38.8c.4,3.6,3.2,6.6,7,7.00001,11.2,1.40001,22.6,2,34.2,2s23-.6,34.19999-2c3.6-.39999,6.6-3.4,7.00001-7.00001l4-38.8c0-4.4-3-8.2-7.4-8.6ZM43.9,88.1c-3.2,0-5.6-3.19999-5.6-7.4s2.6-7.4,5.6-7.4,5.6,3.19999,5.6,7.4-2.4,7.4-5.6,7.4ZM77.29999,96.3c0,.39999-.2.8-.39999,1s-.6.39999-1,.39999h-19.8c-.4,0-.8-.2-1-.39999s-.4-.6-.4-1v-3.6c0-.8.6-1.40001,1.4-1.40001h.4c.8,0,1.4.6,1.4,1.40001v1.8h16.2v-1.8c0-.8.6-1.40001,1.40001-1.40001h.39999c.8,0,1.40001.6,1.40001,1.40001v3.6h-.00001ZM87.89999,88.1c-3.19999,0-5.6-3.19999-5.6-7.4s2.6-7.4,5.6-7.4,5.6,3.19999,5.6,7.4-2.4,7.4-5.6,7.4Z" fill="#1e88e5" stroke-width="0"/></svg>